# xmcd
#
# Track frame offsets:
#	150
#	16044
#	34226
#	52190
#	70797
#	89970
#	101555
#	116870
#	134555
#	149908
#	164639
#	180068
#	190607
#	207218
#
# Disc length: 2940 seconds
#
# Revision: 1
# Processed by: cddbd v1.4PL0 Copyright (c) Steve Scherf et al.
# Submitted via: audiograbber 1.81.03
#
DISCID=d30b7a0e
DTITLE=Paul Orta and The Kingpins - Shake It
DYEAR=1900
DGENRE=Blues
TTITLE0=Sliding Along
TTITLE1=Shake It
TTITLE2=Not Getting No Younger
TTITLE3=I Dream About You
TTITLE4=Babe
TTITLE5=Shake Your Moneymaker
TTITLE6=She's The Most
TTITLE7=Rock Me
TTITLE8=Rock My Soul
TTITLE9=Slide Harp Shuffle
TTITLE10=Hocchie Coochie Man
TTITLE11=I-10 Blues
TTITLE12=I Bet You Could
TTITLE13=Rolling And Tumbling Instrumental
EXTD=
EXTT0=
EXTT1=
EXTT2=
EXTT3=
EXTT4=
EXTT5=
EXTT6=
EXTT7=
EXTT8=
EXTT9=
EXTT10=
EXTT11=
EXTT12=
EXTT13=
PLAYORDER=
